<svg width="97" height="97" viewBox="0 0 97 97" fill="none" xmlns="http://www.w3.org/2000/svg">
<path d="M39.177 1.41188L45.4309 96.3361C46.5477 96.3361 47.6644 96.3361 48.7812 96.3361L42.304 0.741821C41.4106 0.965172 40.2938 1.18853 39.177 1.41188Z" fill="black"/>
<path d="M22.6492 8.33586L28.2329 91.8691C29.3497 92.3158 30.4664 92.9859 31.8065 93.4326L25.9994 6.32568C24.6593 6.99574 23.5426 7.66581 22.6492 8.33586Z" fill="black"/>
<path d="M30.9131 4.09216L36.9435 95.2194C38.0602 95.4427 39.177 95.6661 40.2937 95.8894L34.0399 2.75208C32.9232 3.19878 31.8065 3.64546 30.9131 4.09216Z" fill="black"/>
<path d="M14.3851 15.0364L19.0754 86.5087C20.1922 87.4021 21.5324 88.2955 22.6491 88.9655L17.5121 11.9094C16.6187 12.8028 15.5019 13.9196 14.3851 15.0364Z" fill="black"/>
<path d="M6.56787 25.5338L9.91814 76.9046C11.0349 78.468 12.375 80.0315 13.7151 81.3716L9.69484 20.6201C8.57808 22.1836 7.46128 23.9704 6.56787 25.5338Z" fill="black"/>
<path d="M2.32412 36.7014C-0.132744 46.5289 0.537364 57.0264 4.33433 66.4071L2.32412 36.7014Z" fill="black"/>
<path d="M82.7305 14.5896L86.9742 77.7979C88.0909 76.2345 89.2078 74.8944 90.1012 73.3309L86.5275 18.8333C85.1874 17.2698 84.0706 15.9297 82.7305 14.5896Z" fill="black"/>
<path d="M73.7964 7.44238L78.9336 85.8386C80.0503 84.9452 81.167 84.0518 82.0604 82.935L77.1467 9.67589C76.0299 9.00584 74.9131 8.11244 73.7964 7.44238Z" fill="black"/>
<path d="M92.1112 27.7675L94.5681 63.2803C96.355 57.6965 97.025 52.1127 96.8017 46.3056L96.5782 44.2954C96.1315 38.4883 94.5681 32.9045 92.1112 27.7675Z" fill="black"/>
<path d="M56.1517 0.965332L62.4055 94.5494C63.5223 94.326 64.639 93.8793 65.7558 93.4326L59.7253 1.63539C58.6085 1.41204 57.2685 1.18868 56.1517 0.965332Z" fill="black"/>
<path d="M47.6644 0.518555L54.1415 96.3361C55.2583 96.1128 56.375 96.1128 57.4918 95.8894L51.238 0.741885C49.8979 0.518534 48.7812 0.518555 47.6644 0.518555Z" fill="black"/>
<path d="M64.8624 3.19885L70.6696 91.1991C71.7864 90.5291 72.9031 90.0824 74.0199 89.4123L68.4361 4.53894C67.3194 4.09224 65.9792 3.64555 64.8624 3.19885Z" fill="black"/>
</svg>
